<?xml version="1.0" encoding="utf-8"?>
<!-- Generator: Adobe Illustrator 17.0.0, SVG Export Plug-In . SVG Version: 6.00 Build 0)  -->
<!DOCTYPE svg PUBLIC "-//W3C//DTD SVG 1.1//EN" "http://www.w3.org/Graphics/SVG/1.1/DTD/svg11.dtd">
<svg version="1.1" id="Layer_1" xmlns="http://www.w3.org/2000/svg" xmlns:xlink="http://www.w3.org/1999/xlink" x="0px" y="0px"
	 width="255px" height="80px" viewBox="0 0 255 80" enable-background="new 0 0 255 80" xml:space="preserve">
<symbol  id="imagitipo_2" viewBox="-71.78 -71.471 143.274 143.524">
	<g>
		<g>
			<path fill="#FFFFFF" d="M71.056,38.439c-0.494,1.56-1.16,2.797-1.648,3.892l-0.749,1.773c-0.282,0.643-0.582,1.279-0.899,1.908
				c-0.639,1.254-1.354,2.473-2.15,3.644c-3.139,4.717-7.744,8.525-13.024,10.652c-5.268,2.184-11.172,2.592-16.619,1.371
				c-5.226-1.109-9.964-3.783-13.797-7.271c-0.601,0.156-1.232,0.215-1.835,0.137c-0.93-0.113-1.746-0.461-2.443-0.867
				c-1.396-0.836-2.451-1.895-3.454-2.949c-1.944-2.098-3.569-4.357-5.546-6.271c0,0-5.734-10.994-6.632-12.63
				c-3.348-0.099-6.671-0.267-9.856,0.148c-2.449,0.32-4.759,1.078-6.869,2.207c-2.123,1.133-3.994,2.656-5.756,4.395
				c-3.553,3.466-6.781,7.462-10.299,11.306c-1.782,1.903-3.631,3.79-5.66,5.568c-1.4,1.215-2.896,2.379-4.544,3.41
				c0.163,0.219,0.339,0.435,0.532,0.653c0.723,0.833,1.59,1.657,2.507,2.471c1.849,1.64,3.907,3.216,5.925,5.125l2.726,2.58
				l-3.409,1.675c-0.95,0.469-2.053,0.695-3.049,0.686c-0.998-0.003-1.892-0.191-2.674-0.438c-1.561-0.494-2.797-1.16-3.893-1.648
				l-1.773-0.749c-0.643-0.282-1.279-0.582-1.907-0.899c-1.255-0.639-2.474-1.354-3.646-2.15
				c-4.717-3.139-8.525-7.744-10.651-13.023c-2.185-5.267-2.593-11.172-1.371-16.619c1.108-5.226,3.782-9.964,7.271-13.797
				c-0.155-0.601-0.215-1.232-0.137-1.835c0.114-0.93,0.461-1.746,0.867-2.443c0.836-1.396,1.894-2.451,2.95-3.454
				c2.098-1.944,4.357-3.569,6.271-5.546c0,0,9.649-5.044,12.618-6.63c0.094-3.518,0.3-7.014-0.136-10.357
				c-0.32-2.449-1.078-4.76-2.207-6.869c-1.133-2.123-2.656-3.994-4.395-5.756c-3.466-3.553-7.462-6.781-11.306-10.299
				c-1.903-1.783-3.79-3.631-5.568-5.66c-1.215-1.4-2.379-2.896-3.41-4.545c-0.219,0.164-0.435,0.34-0.653,0.533
				c-0.833,0.723-1.657,1.59-2.471,2.506c-1.64,1.85-3.216,3.908-5.125,5.926l-2.58,2.725l-1.675-3.408
				c-0.469-0.951-0.695-2.053-0.686-3.049c0.003-0.998,0.191-1.893,0.438-2.674c0.494-1.561,1.16-2.797,1.648-3.893l0.749-1.773
				c0.282-0.643,0.582-1.279,0.899-1.908c0.639-1.254,1.354-2.473,2.15-3.645c3.139-4.717,7.744-8.525,13.023-10.652
				c5.268-2.184,11.172-2.592,16.619-1.371c5.226,1.109,9.964,3.783,13.797,7.271c0.601-0.156,1.232-0.215,1.835-0.137
				c0.93,0.113,1.746,0.461,2.443,0.867c1.396,0.836,2.451,1.895,3.454,2.949c1.944,2.098,3.569,4.357,5.546,6.271
				c0,0,5.482,10.633,6.678,12.875c3.417,0.097,6.811,0.279,10.06-0.143c2.449-0.32,4.76-1.078,6.869-2.207
				c2.123-1.133,3.994-2.656,5.756-4.395c3.553-3.466,6.781-7.462,10.299-11.306c1.783-1.903,3.631-3.79,5.66-5.568
				c1.4-1.215,2.896-2.379,4.545-3.41c-0.164-0.219-0.34-0.434-0.533-0.653c-0.723-0.833-1.59-1.657-2.506-2.471
				c-1.85-1.64-3.908-3.216-5.926-5.125L29-69.11l3.408-1.675c0.951-0.469,2.053-0.695,3.049-0.685
				c0.998,0.003,1.893,0.191,2.674,0.438c1.561,0.494,2.797,1.16,3.893,1.648l1.773,0.749c0.643,0.282,1.279,0.582,1.908,0.899
				c1.254,0.639,2.473,1.354,3.645,2.15c4.717,3.139,8.525,7.744,10.652,13.023c2.183,5.268,2.592,11.172,1.371,16.619
				c-1.109,5.226-3.783,9.964-7.271,13.797c0.156,0.601,0.215,1.232,0.137,1.835c-0.113,0.93-0.461,1.746-0.867,2.443
				c-0.836,1.396-1.895,2.451-2.949,3.454c-2.098,1.944-4.357,3.569-6.271,5.546c0,0-12.875,6.732-12.875,6.789
				c0,0.001-0.002-0.005-0.002-0.005C31.175,1.297,31,4.654,31.419,7.869c0.32,2.449,1.078,4.76,2.207,6.869
				c1.133,2.123,2.656,3.994,4.394,5.756c3.466,3.553,7.462,6.781,11.306,10.299c1.903,1.783,3.79,3.631,5.568,5.66
				c1.215,1.4,2.379,2.896,3.41,4.545c0.219-0.164,0.435-0.34,0.653-0.533c0.833-0.723,1.657-1.59,2.471-2.506
				c1.64-1.85,3.216-3.908,5.125-5.926l2.58-2.725l1.675,3.408c0.469,0.951,0.695,2.053,0.686,3.049
				C71.491,36.764,71.303,37.658,71.056,38.439z M-0.143-13.456c-7.592,0-13.747,6.155-13.747,13.747s6.155,13.747,13.747,13.747
				S13.604,7.883,13.604,0.291S7.45-13.456-0.143-13.456z"/>
			<path fill="#FFFFFF" d="M0.662-11.975c3.919,0,7.424,1.75,9.795,4.505c-2.176-1.63-4.868-2.606-7.795-2.606
				c-7.197,0-13.032,5.834-13.032,13.031c0,2.927,0.977,5.618,2.605,7.794c-2.753-2.372-4.504-5.876-4.504-9.794
				C-12.269-6.187-6.48-11.975,0.662-11.975z"/>
		</g>
	</g>
</symbol>
<g>
	
		<use xlink:href="#imagitipo_2"  width="143.274" height="143.524" id="XMLID_1_" x="-71.78" y="-71.471" transform="matrix(0.5574 0 0 -0.5574 40.0099 40.1622)" overflow="visible"/>
	<g>
		<path fill="#FFFFFF" d="M109.069,32.3c0.969,0,1.865,0.166,2.691,0.501c0.825,0.336,1.54,0.823,2.146,1.463
			c0.605,0.64,1.078,1.428,1.418,2.362c0.34,0.935,0.511,2.008,0.511,3.219c0,0.254-0.037,0.427-0.112,0.519
			c-0.075,0.092-0.194,0.138-0.355,0.138h-12.425v0.33c0,1.292,0.15,2.428,0.45,3.409c0.3,0.98,0.727,1.803,1.281,2.466
			c0.554,0.664,1.222,1.162,2.008,1.496c0.784,0.336,1.661,0.502,2.63,0.502c0.865,0,1.615-0.095,2.25-0.286
			c0.634-0.189,1.168-0.402,1.601-0.64c0.433-0.236,0.775-0.449,1.03-0.64c0.253-0.191,0.438-0.286,0.554-0.286
			c0.15,0,0.266,0.059,0.346,0.174l0.449,0.554c-0.277,0.345-0.643,0.669-1.098,0.968c-0.456,0.301-0.964,0.557-1.523,0.77
			c-0.56,0.213-1.16,0.384-1.8,0.511c-0.64,0.126-1.283,0.189-1.929,0.189c-1.177,0-2.25-0.204-3.219-0.614
			c-0.969-0.408-1.801-1.006-2.495-1.79c-0.694-0.785-1.231-1.746-1.61-2.882s-0.568-2.437-0.568-3.902
			c0-1.235,0.175-2.374,0.528-3.418c0.352-1.044,0.859-1.944,1.523-2.701c0.663-0.755,1.477-1.346,2.44-1.773
			C106.753,32.513,107.846,32.3,109.069,32.3z M109.094,33.529c-0.887,0-1.682,0.138-2.384,0.415
			c-0.703,0.277-1.31,0.675-1.823,1.195c-0.513,0.519-0.927,1.142-1.244,1.868c-0.316,0.726-0.526,1.54-0.63,2.44h11.335
			c0-0.923-0.127-1.75-0.38-2.484c-0.253-0.732-0.61-1.353-1.071-1.859c-0.461-0.508-1.014-0.897-1.659-1.168
			S109.877,33.529,109.094,33.529z"/>
		<path fill="#FFFFFF" d="M131.252,49.795c-0.346,0-0.559-0.162-0.64-0.486l-0.242-2.197c-0.474,0.461-0.943,0.876-1.411,1.245
			c-0.467,0.371-0.955,0.681-1.462,0.935s-1.055,0.448-1.644,0.579c-0.589,0.133-1.235,0.2-1.938,0.2
			c-0.589,0-1.16-0.086-1.713-0.26c-0.554-0.172-1.044-0.439-1.471-0.796c-0.427-0.357-0.77-0.815-1.03-1.375
			c-0.259-0.56-0.389-1.231-0.389-2.017c0-0.726,0.207-1.401,0.623-2.024c0.415-0.623,1.064-1.165,1.947-1.626
			s2.019-0.831,3.409-1.107c1.39-0.277,3.06-0.439,5.009-0.486v-1.799c0-1.593-0.343-2.819-1.03-3.678
			c-0.686-0.859-1.704-1.289-3.055-1.289c-0.831,0-1.537,0.115-2.12,0.346c-0.582,0.23-1.076,0.484-1.48,0.761
			s-0.733,0.531-0.986,0.761c-0.253,0.231-0.467,0.346-0.64,0.346c-0.231,0-0.404-0.104-0.52-0.312l-0.294-0.501
			c0.899-0.9,1.846-1.581,2.837-2.042c0.992-0.461,2.117-0.693,3.375-0.693c0.923,0,1.731,0.148,2.423,0.442
			c0.692,0.294,1.266,0.716,1.722,1.263c0.455,0.548,0.799,1.212,1.03,1.989c0.231,0.779,0.346,1.648,0.346,2.605v11.214H131.252z
			 M124.331,48.878c0.669,0,1.283-0.073,1.843-0.216c0.56-0.145,1.079-0.346,1.558-0.607c0.479-0.259,0.926-0.567,1.341-0.926
			c0.415-0.357,0.825-0.744,1.228-1.159v-4.483c-1.638,0.047-3.048,0.171-4.231,0.372c-1.182,0.203-2.157,0.477-2.924,0.823
			c-0.768,0.345-1.333,0.758-1.696,1.236c-0.363,0.48-0.545,1.024-0.545,1.635c0,0.578,0.095,1.077,0.286,1.498
			c0.191,0.421,0.441,0.767,0.753,1.038s0.675,0.471,1.09,0.598C123.448,48.815,123.881,48.878,124.331,48.878z"/>
		<path fill="#FFFFFF" d="M142.778,32.282c0.75,0,1.446,0.092,2.086,0.277s1.214,0.445,1.722,0.779h4.413v0.57
			c0,0.289-0.162,0.445-0.485,0.467l-2.613,0.191c0.323,0.439,0.571,0.932,0.744,1.48c0.172,0.548,0.259,1.133,0.259,1.756
			c0,0.831-0.151,1.584-0.45,2.259c-0.3,0.675-0.718,1.251-1.255,1.731c-0.536,0.478-1.179,0.85-1.929,1.115
			c-0.75,0.266-1.581,0.398-2.492,0.398c-0.992,0-1.892-0.15-2.699-0.449c-0.485,0.277-0.865,0.605-1.142,0.986
			s-0.415,0.75-0.415,1.107c0,0.496,0.173,0.877,0.519,1.142c0.346,0.265,0.805,0.458,1.376,0.579
			c0.571,0.121,1.222,0.2,1.955,0.235c0.732,0.033,1.477,0.071,2.232,0.112s1.499,0.112,2.232,0.216
			c0.732,0.104,1.384,0.286,1.955,0.545c0.571,0.26,1.03,0.623,1.376,1.091c0.346,0.467,0.519,1.086,0.519,1.859
			c0,0.716-0.179,1.402-0.536,2.061c-0.358,0.657-0.874,1.239-1.549,1.747c-0.675,0.507-1.491,0.914-2.449,1.219
			c-0.958,0.306-2.03,0.458-3.219,0.458c-1.211,0-2.272-0.124-3.184-0.372c-0.912-0.248-1.676-0.582-2.293-1.003
			s-1.082-0.909-1.393-1.463c-0.311-0.554-0.467-1.141-0.467-1.764c0-0.912,0.3-1.696,0.899-2.354
			c0.6-0.657,1.425-1.165,2.475-1.522c-0.577-0.197-1.036-0.48-1.376-0.849c-0.34-0.369-0.511-0.882-0.511-1.54
			c0-0.242,0.046-0.496,0.138-0.761c0.092-0.265,0.231-0.528,0.415-0.788c0.185-0.259,0.407-0.504,0.666-0.735
			c0.259-0.23,0.562-0.437,0.908-0.622c-0.819-0.474-1.457-1.103-1.912-1.887c-0.456-0.785-0.684-1.702-0.684-2.752
			c0-0.831,0.148-1.584,0.442-2.259c0.294-0.675,0.71-1.254,1.246-1.738c0.536-0.484,1.185-0.859,1.946-1.126
			C141.013,32.415,141.855,32.282,142.778,32.282z M149.164,50.954c0-0.542-0.141-0.977-0.424-1.306
			c-0.283-0.33-0.66-0.585-1.133-0.77c-0.474-0.185-1.018-0.315-1.635-0.39c-0.617-0.074-1.263-0.13-1.938-0.163
			c-0.675-0.035-1.353-0.07-2.033-0.104c-0.681-0.035-1.315-0.104-1.903-0.207c-0.439,0.172-0.846,0.372-1.22,0.596
			c-0.375,0.225-0.695,0.48-0.961,0.763c-0.266,0.281-0.473,0.593-0.623,0.933c-0.151,0.34-0.225,0.713-0.225,1.117
			c0,0.507,0.13,0.977,0.39,1.41c0.259,0.433,0.64,0.808,1.142,1.126c0.502,0.316,1.116,0.567,1.843,0.752
			c0.727,0.185,1.564,0.277,2.509,0.277c0.877,0,1.693-0.098,2.449-0.294c0.756-0.197,1.413-0.474,1.973-0.831
			c0.56-0.359,0.998-0.785,1.315-1.281C149.005,52.084,149.164,51.543,149.164,50.954z M142.778,42.181
			c0.738,0,1.396-0.106,1.973-0.321c0.577-0.213,1.061-0.51,1.454-0.891c0.392-0.38,0.689-0.837,0.891-1.366
			c0.202-0.531,0.303-1.12,0.303-1.766c0-0.646-0.104-1.238-0.311-1.773c-0.208-0.537-0.511-0.995-0.908-1.377
			c-0.399-0.38-0.883-0.675-1.454-0.882c-0.571-0.207-1.22-0.312-1.947-0.312c-0.726,0-1.378,0.104-1.955,0.312
			c-0.576,0.207-1.064,0.502-1.462,0.882c-0.398,0.381-0.7,0.84-0.908,1.377c-0.207,0.536-0.311,1.127-0.311,1.773
			c0,0.646,0.104,1.235,0.311,1.766c0.208,0.53,0.511,0.986,0.908,1.366c0.399,0.381,0.886,0.678,1.462,0.891
			C141.399,42.075,142.051,42.181,142.778,42.181z"/>
		<path fill="#FFFFFF" d="M156.69,24.616v25.179h-1.644V24.616H156.69z"/>
		<path fill="#FFFFFF" d="M169.271,32.3c0.969,0,1.865,0.166,2.691,0.501c0.825,0.336,1.54,0.823,2.146,1.463
			c0.605,0.64,1.078,1.428,1.418,2.362c0.34,0.935,0.511,2.008,0.511,3.219c0,0.254-0.037,0.427-0.112,0.519
			c-0.075,0.092-0.194,0.138-0.355,0.138h-12.425v0.33c0,1.292,0.15,2.428,0.45,3.409c0.3,0.98,0.727,1.803,1.281,2.466
			c0.554,0.664,1.222,1.162,2.008,1.496c0.784,0.336,1.661,0.502,2.63,0.502c0.865,0,1.615-0.095,2.25-0.286
			c0.634-0.189,1.168-0.402,1.601-0.64c0.433-0.236,0.775-0.449,1.03-0.64c0.253-0.191,0.438-0.286,0.554-0.286
			c0.15,0,0.266,0.059,0.346,0.174l0.449,0.554c-0.277,0.345-0.643,0.669-1.098,0.968c-0.456,0.301-0.964,0.557-1.523,0.77
			c-0.56,0.213-1.16,0.384-1.8,0.511c-0.64,0.126-1.283,0.189-1.929,0.189c-1.177,0-2.25-0.204-3.219-0.614
			c-0.969-0.408-1.801-1.006-2.495-1.79c-0.694-0.785-1.231-1.746-1.61-2.882s-0.568-2.437-0.568-3.902
			c0-1.235,0.175-2.374,0.528-3.418c0.352-1.044,0.859-1.944,1.523-2.701c0.663-0.755,1.477-1.346,2.44-1.773
			C166.954,32.513,168.048,32.3,169.271,32.3z M169.296,33.529c-0.887,0-1.682,0.138-2.384,0.415
			c-0.703,0.277-1.31,0.675-1.823,1.195c-0.513,0.519-0.927,1.142-1.244,1.868c-0.316,0.726-0.526,1.54-0.63,2.44h11.335
			c0-0.923-0.127-1.75-0.38-2.484c-0.253-0.732-0.61-1.353-1.071-1.859c-0.461-0.508-1.014-0.897-1.659-1.168
			S170.079,33.529,169.296,33.529z"/>
		<path fill="#FFFFFF" d="M179.738,49.795V31.849h3.322c0.336,0,0.616,0.076,0.84,0.225c0.225,0.15,0.384,0.375,0.477,0.675
			l0.312,1.038c0.345-0.322,0.704-0.622,1.073-0.899c0.369-0.277,0.764-0.511,1.185-0.702c0.422-0.189,0.877-0.339,1.368-0.449
			c0.49-0.109,1.024-0.165,1.601-0.165c0.98,0,1.849,0.171,2.604,0.511c0.756,0.34,1.393,0.812,1.912,1.419
			c0.52,0.605,0.912,1.327,1.177,2.162c0.265,0.837,0.398,1.746,0.398,2.726v11.404h-5.365V38.391c0-0.876-0.201-1.56-0.605-2.05
			c-0.404-0.49-0.999-0.737-1.782-0.737c-0.589,0-1.142,0.127-1.661,0.381s-1.015,0.595-1.489,1.021v12.789H179.738z"/>
		<path fill="#FFFFFF" d="M205.972,26.935c0,0.427-0.086,0.828-0.259,1.203c-0.174,0.375-0.41,0.703-0.71,0.986
			c-0.301,0.283-0.649,0.507-1.047,0.675s-0.823,0.251-1.272,0.251c-0.439,0-0.847-0.083-1.228-0.251
			c-0.381-0.168-0.719-0.392-1.012-0.675c-0.295-0.283-0.525-0.611-0.693-0.986c-0.166-0.375-0.251-0.776-0.251-1.203
			c0-0.439,0.085-0.849,0.251-1.228c0.168-0.381,0.398-0.716,0.693-1.005c0.294-0.287,0.631-0.513,1.012-0.675
			c0.381-0.16,0.79-0.242,1.228-0.242c0.449,0,0.874,0.082,1.272,0.242c0.398,0.162,0.746,0.387,1.047,0.675
			c0.3,0.289,0.536,0.623,0.71,1.005C205.886,26.087,205.972,26.497,205.972,26.935z M205.35,31.849v17.946h-5.365V31.849H205.35z"
			/>
		<path fill="#FFFFFF" d="M209.676,49.795V31.849h3.322c0.334,0,0.614,0.076,0.84,0.225c0.224,0.15,0.383,0.375,0.475,0.675
			l0.312,1.038c0.346-0.322,0.704-0.622,1.073-0.899s0.764-0.511,1.186-0.702c0.421-0.189,0.876-0.339,1.366-0.449
			c0.49-0.109,1.024-0.165,1.601-0.165c0.982,0,1.849,0.171,2.605,0.511c0.755,0.34,1.393,0.812,1.912,1.419
			c0.519,0.605,0.911,1.327,1.177,2.162c0.265,0.837,0.398,1.746,0.398,2.726v11.404h-5.365V38.391c0-0.876-0.203-1.56-0.605-2.05
			c-0.404-0.49-0.999-0.737-1.784-0.737c-0.587,0-1.141,0.127-1.661,0.381c-0.519,0.254-1.015,0.595-1.487,1.021v12.789H209.676z"/>
		<path fill="#FFFFFF" d="M235.286,31.849V49.83c0,0.841-0.107,1.635-0.321,2.378c-0.213,0.744-0.564,1.396-1.054,1.956
			c-0.49,0.56-1.136,1-1.938,1.324c-0.802,0.322-1.797,0.484-2.985,0.484c-0.439,0-0.846-0.026-1.221-0.077
			c-0.375-0.053-0.764-0.13-1.168-0.234l0.172-2.82c0.024-0.242,0.104-0.422,0.244-0.537c0.138-0.115,0.415-0.172,0.831-0.172
			c0.415,0,0.755-0.035,1.02-0.104c0.266-0.068,0.477-0.191,0.632-0.363c0.156-0.172,0.265-0.407,0.328-0.7
			c0.064-0.295,0.095-0.672,0.095-1.133V31.849H235.286z M235.909,26.935c0,0.427-0.086,0.828-0.26,1.203
			c-0.172,0.375-0.41,0.703-0.71,0.986c-0.3,0.283-0.649,0.507-1.047,0.675c-0.398,0.168-0.822,0.251-1.271,0.251
			c-0.439,0-0.849-0.083-1.23-0.251c-0.38-0.168-0.717-0.392-1.012-0.675c-0.294-0.283-0.525-0.611-0.691-0.986
			c-0.168-0.375-0.251-0.776-0.251-1.203c0-0.439,0.083-0.849,0.251-1.228c0.166-0.381,0.398-0.716,0.691-1.005
			c0.295-0.287,0.632-0.513,1.012-0.675c0.381-0.16,0.791-0.242,1.23-0.242c0.449,0,0.873,0.082,1.271,0.242
			c0.398,0.162,0.747,0.387,1.047,0.675c0.3,0.289,0.537,0.623,0.71,1.005C235.823,26.087,235.909,26.497,235.909,26.935z"/>
		<path fill="#FFFFFF" d="M251.934,49.795c-0.508,0-0.891-0.07-1.151-0.209c-0.26-0.138-0.477-0.427-0.649-0.864l-0.381-0.986
			c-0.449,0.38-0.882,0.716-1.297,1.003c-0.416,0.289-0.846,0.534-1.29,0.735c-0.443,0.203-0.917,0.353-1.419,0.451
			c-0.501,0.097-1.058,0.147-1.669,0.147c-0.82,0-1.564-0.107-2.233-0.322c-0.669-0.213-1.238-0.528-1.705-0.946
			c-0.466-0.416-0.828-0.935-1.08-1.554c-0.254-0.619-0.381-1.334-0.381-2.144c0-0.637,0.162-1.291,0.484-1.962
			c0.324-0.672,0.884-1.281,1.679-1.832c0.796-0.549,1.868-1.009,3.218-1.38c1.35-0.371,3.052-0.555,5.105-0.555v-0.769
			c0-1.059-0.216-1.825-0.648-2.297c-0.433-0.472-1.047-0.708-1.844-0.708c-0.634,0-1.153,0.07-1.557,0.209
			c-0.404,0.138-0.764,0.294-1.082,0.467c-0.318,0.172-0.626,0.328-0.926,0.466c-0.3,0.139-0.658,0.209-1.073,0.209
			c-0.369,0-0.684-0.089-0.943-0.269c-0.26-0.179-0.464-0.401-0.616-0.666l-0.968-1.679c1.085-0.956,2.288-1.669,3.608-2.136
			c1.321-0.467,2.737-0.7,4.248-0.7c1.085,0,2.062,0.175,2.934,0.526c0.87,0.353,1.608,0.843,2.215,1.472
			c0.605,0.628,1.07,1.375,1.393,2.241c0.322,0.865,0.484,1.811,0.484,2.838v11.214H251.934z M245.773,46.524
			c0.691,0,1.297-0.121,1.817-0.363c0.519-0.242,1.044-0.635,1.573-1.177v-2.457c-1.073,0-1.955,0.07-2.648,0.209
			c-0.691,0.139-1.239,0.315-1.643,0.523c-0.404,0.21-0.684,0.449-0.84,0.716c-0.156,0.268-0.233,0.56-0.233,0.873
			c0,0.617,0.166,1.051,0.501,1.301C244.636,46.399,245.126,46.524,245.773,46.524z"/>
	</g>
</g>
</svg>
